<svg width="147" height="147" viewBox="0 0 147 147" fill="none" xmlns="http://www.w3.org/2000/svg">
<path d="M143.814 73.081L143.814 73.0905C143.962 112.129 112.254 143.815 73.157 143.815C34.2149 143.815 2.5 112.129 2.5 73.2336C2.5 34.1823 34.2183 2.5 73.157 2.5C112.099 2.5 143.814 34.1857 143.814 73.081Z" fill="white" stroke="white" stroke-width="5"/>
<path fill-rule="evenodd" clip-rule="evenodd" d="M0 73.2336C0 113.512 32.8367 146.315 73.157 146.315C113.63 146.315 146.467 113.512 146.314 73.081C146.314 32.8025 113.477 0 73.157 0C32.8367 0 0 32.8025 0 73.2336ZM7.02552 73.2336C7.02552 36.7694 36.6549 7.17079 73.157 7.17079C109.659 7.17079 139.289 36.7694 139.289 73.2336C139.289 109.698 109.659 139.296 73.157 139.296C36.6549 139.296 7.02552 109.698 7.02552 73.2336ZM31.4623 42.1092L28.255 60.7228H41.2369L42.1533 55.688H34.8223L35.2805 53.7046H41.3896L42.1533 48.9749H36.0441L36.3496 47.144H42.7642L43.6806 42.1092H31.4623ZM55.44 60.7228H48.5672L45.9708 42.1092H52.5382L53.3018 53.7046H53.4545L58.9528 42.1092L66.131 42.1092L55.44 60.7228ZM67.9644 42.1092L64.7571 60.7228H77.7391L78.6554 55.688H71.3245L71.7827 53.7046H77.8918L78.6554 48.9749H72.5463L72.8518 47.144H79.2663L80.1827 42.1092H67.9644ZM91.6376 60.7228L89.0412 53.8571H88.2776L87.0557 60.7228H81.2521L84.6121 42.1092H92.2485C93.3176 42.1092 94.234 42.2618 94.9976 42.4144C95.7613 42.5669 96.5249 43.0247 97.1358 43.4824C97.7467 43.9401 98.2049 44.3978 98.5104 45.1606C98.8158 45.7709 98.9686 46.5338 98.9686 47.2966C98.9686 48.8223 98.6631 50.0429 97.8994 51.1109C97.1358 52.1789 96.2194 52.7891 94.8449 53.0943L98.5104 60.7228H91.6376ZM90.4158 50.0429C91.1794 50.0429 91.7903 49.8903 92.2485 49.5852C92.7067 49.28 92.8594 48.8223 92.8594 48.212C92.8594 47.6018 92.7067 47.2966 92.2485 47.144C91.943 46.9915 91.3321 46.8389 90.7212 46.8389H89.6521L89.0412 50.0429H90.4158ZM110.117 60.7228L111.491 53.0943L120.655 42.1092H113.171L109.201 47.9069L107.215 42.1092H100.495L105.382 53.0943L104.008 60.7228H110.117ZM32.3787 65.7578C32.9896 65.7578 33.7532 65.7578 34.3641 65.9103C34.9751 66.0629 35.586 66.2155 36.1969 66.6732C36.6551 66.9783 37.1133 67.436 37.4187 67.8937C37.7242 68.3514 37.8769 69.1143 37.8769 69.8771C37.8769 71.0977 37.5714 72.1657 36.8078 72.9285C36.0442 73.6914 35.1278 74.3017 34.0587 74.6068C34.2878 74.6831 34.4787 74.7594 34.6696 74.8356C34.8605 74.9119 35.0514 74.9882 35.2805 75.0645C35.586 75.2171 36.0442 75.5222 36.3496 75.8274C36.6551 76.1325 36.8078 76.5902 36.9605 77.0479C37.1133 77.5056 37.266 77.9633 37.266 78.5736C37.266 79.4891 37.1133 80.4045 36.6551 81.0147C36.1969 81.7776 35.7387 82.3879 34.9751 82.8456C34.2114 83.3033 33.4478 83.761 32.3787 83.9136C31.4623 84.2187 30.3932 84.2187 29.1714 84.2187H20.4658L23.8258 65.6052H32.3787V65.7578ZM27.4913 76.8954L27.0331 79.6416H28.5604H29.4768C29.7823 79.6416 30.0877 79.4891 30.2405 79.3365C30.5459 79.1839 30.6986 79.0313 30.8514 78.8788C31.0041 78.7262 31.0041 78.4211 31.0041 78.1159C31.0041 77.6582 30.8514 77.3531 30.5459 77.2005C30.2405 77.0479 29.7823 76.8954 29.1714 76.8954H27.4913ZM28.5604 70.4874L28.1022 73.0811H29.7823H30.5459C30.7248 73.0811 30.8514 73.0288 30.9562 72.9854C31.0303 72.9547 31.0936 72.9285 31.1568 72.9285L31.615 72.4708C31.7677 72.3183 31.7677 72.0131 31.7677 71.708C31.7677 71.2503 31.615 70.9451 31.3096 70.7926C31.0041 70.64 30.5459 70.4874 30.0877 70.4874H28.5604ZM45.2074 84.2187C46.4293 84.6764 47.6511 84.8289 49.1784 84.8289C51.0111 84.8289 52.5384 84.5238 53.7603 83.9135C55.1348 83.3032 56.2039 82.5404 57.273 81.4724C58.1894 80.557 58.953 79.3364 59.5639 77.9633C60.0221 76.7427 60.3276 75.217 60.3276 73.6913C60.3276 72.4708 60.1749 71.4028 59.7167 70.3348C59.2585 69.2668 58.6476 68.3514 57.8839 67.5885C57.1203 66.9783 56.2039 66.368 54.9821 65.9103C53.913 65.4526 52.5384 65.3 51.0111 65.3C49.3311 65.3 47.8038 65.6051 46.4293 66.2154C45.0547 66.8257 43.8329 67.5885 42.9165 68.6565C42.0001 69.5719 41.2365 70.7925 40.6256 72.1656C40.1674 73.3862 39.8619 74.9119 39.8619 76.4376C39.8619 77.6581 40.0146 78.7261 40.4728 79.7941C40.931 80.8621 41.5419 81.7775 42.3056 82.5404C43.0692 83.1507 43.9856 83.7609 45.2074 84.2187ZM54.1421 73.4625C54.1803 73.6913 54.2184 73.9202 54.2184 74.149C54.2184 74.9119 54.2184 75.5222 53.913 76.1325C53.8238 76.3105 53.7477 76.4886 53.6732 76.6629C53.4924 77.0859 53.3211 77.4866 52.9966 77.8107C52.6912 78.2684 52.233 78.5736 51.622 78.8787C51.1639 79.1839 50.4002 79.3364 49.7893 79.3364C49.1784 79.3364 48.7202 79.1839 48.2621 79.0313L48.262 79.0313C47.8038 78.8787 47.4984 78.5736 47.1929 78.2684C46.8874 77.9633 46.7347 77.6581 46.582 77.2004C46.4293 76.7427 46.4293 76.285 46.4293 75.8273C46.4293 75.217 46.582 74.6068 46.7347 73.9965C46.8238 73.8184 46.9 73.6403 46.9745 73.4661C47.1553 73.043 47.3266 72.6424 47.6511 72.3182C47.9566 71.7079 48.4147 71.4028 49.0256 71.0976C49.4838 70.7925 50.2475 70.6399 50.8584 70.6399C51.4693 70.6399 51.9275 70.7925 52.3857 70.9451C52.8439 71.0976 53.1493 71.4028 53.4548 71.7079C53.7602 72.0131 53.913 72.3182 54.0657 72.7759C54.0657 73.0048 54.1039 73.2336 54.1421 73.4625ZM73.4626 70.9448L71.019 84.371H64.9099L67.3535 70.9448H62.6189L63.5353 65.7575H78.8081L77.8918 70.9448H73.4626ZM87.9712 84.371L90.2622 70.9448H94.844L95.7604 65.7575H80.4875L79.4184 70.9448H84.153L81.8621 84.371H87.9712ZM94.998 84.371L98.2053 65.7575H104.314L102.024 79.1836H108.285L107.369 84.371H94.998ZM113.172 65.7575L109.964 84.371H122.946L123.863 79.3362H116.532L116.99 77.3528H123.099L123.863 72.6231H117.753L118.059 70.7923H124.473L125.39 65.7575H113.172ZM45.9708 89.406C46.5817 89.406 47.3454 89.406 47.9563 89.5585C48.5672 89.7111 49.1781 89.8637 49.789 90.3214C50.4 90.7791 50.7054 91.0842 51.0109 91.542C51.3163 91.9997 51.4691 92.7625 51.4691 93.5254C51.4691 94.7459 51.1636 95.8139 50.4 96.5768C49.6363 97.3396 48.72 97.9499 47.6508 98.255C47.8799 98.3313 48.0708 98.4076 48.2617 98.4839C48.4526 98.5602 48.6436 98.6365 48.8727 98.7127C49.1781 98.8653 49.6363 99.1704 49.9418 99.4756C50.2472 99.7807 50.3999 100.238 50.5527 100.696L50.5527 100.696C50.7054 101.154 50.8582 101.612 50.8582 102.222C50.8582 103.137 50.7054 104.053 50.2472 104.663C49.789 105.426 49.3309 106.036 48.5672 106.494C47.8036 106.952 47.0399 107.409 45.9708 107.562C45.0545 107.867 43.9854 107.867 42.7636 107.867H42.7635H34.058L37.418 89.2534H45.9708V89.406ZM41.0835 100.544L40.6253 103.29H42.1526H43.069C43.3744 103.29 43.6799 103.137 43.8326 102.985C44.1381 102.832 44.2908 102.68 44.4435 102.527C44.5963 102.374 44.5963 102.069 44.5963 101.764C44.5963 101.306 44.4435 101.001 44.1381 100.849C43.8326 100.696 43.3744 100.544 42.7635 100.544H41.0835ZM42.1526 94.1356L41.6944 96.7293H43.3744H44.1381C44.317 96.7293 44.4435 96.677 44.5484 96.6336C44.6225 96.6029 44.6857 96.5768 44.749 96.5768L45.2072 96.1191C45.3599 95.9665 45.3599 95.6613 45.3599 95.3562C45.3599 94.8985 45.2072 94.5934 44.9017 94.4408C44.5963 94.2882 44.1381 94.1356 43.6799 94.1356H42.1526ZM65.0617 105.273L65.5199 108.02V108.172H71.629L68.4217 89.5587H62.0071L50.5525 108.172H57.4253L58.9526 105.273H65.0617ZM61.3962 100.544L63.9926 95.814L64.6035 100.544H61.3962ZM89.4987 106.951C89.0405 107.257 88.4296 107.562 87.8188 107.867L87.8187 107.867C87.2078 108.172 86.4441 108.325 85.6805 108.477C84.9168 108.63 84.0005 108.782 83.0841 108.782C81.7095 108.782 80.4877 108.63 79.2659 108.172C78.1968 107.714 77.2804 107.257 76.5168 106.494C75.7531 105.731 75.1422 104.968 74.8368 103.9C74.3786 102.832 74.2258 101.764 74.2258 100.544C74.2258 99.0179 74.5313 97.4921 74.9895 96.119C75.6004 94.7459 76.364 93.5253 77.2804 92.4573C78.3495 91.3893 79.4186 90.6265 80.7932 90.0162C82.1677 89.4059 83.695 89.1008 85.2223 89.1008C86.9023 89.1008 88.2769 89.4059 89.4987 89.8636C90.7205 90.3214 91.6369 90.9316 92.2478 91.6945L87.9714 96.119C87.6659 95.6613 87.2078 95.3562 86.7496 95.051C86.2914 94.8985 85.6805 94.7459 85.0696 94.7459C84.4587 94.7459 83.8477 94.8985 83.2368 95.2036C82.6259 95.5087 82.1677 95.8139 81.8623 96.2716C81.5378 96.5957 81.3665 96.9964 81.1857 97.4194L81.1856 97.4195C81.1111 97.5938 81.035 97.7718 80.9459 97.9499C80.7932 98.5601 80.6404 99.1704 80.6404 99.9333C80.6404 100.849 80.9459 101.612 81.5568 102.222C82.1677 102.832 82.9314 103.137 84.1532 103.137C84.7641 103.137 85.375 102.985 85.9859 102.68C86.5968 102.374 87.055 102.069 87.5132 101.612L90.5678 106.036C90.4151 106.341 89.9569 106.646 89.4987 106.951ZM99.8844 100.239L104.008 108.02H111.339L105.535 98.4077L113.935 89.4061H106.452L100.495 96.5769L101.717 89.4061H95.9135L92.5534 108.02H98.5098L99.8844 100.239Z" fill="#67BD26"/>
</svg>
