<svg width="148" height="148" viewBox="0 0 148 148" fill="none" xmlns="http://www.w3.org/2000/svg">
<mask id="mask0" mask-type="alpha" maskUnits="userSpaceOnUse" x="0" y="0" width="148" height="148">
<path fill-rule="evenodd" clip-rule="evenodd" d="M0 73.9975C0 114.867 33.1319 148 73.9974 148C114.868 148 148 114.867 148 73.9975C148 33.1283 114.868 0 73.9974 0C33.1319 0 0 33.1283 0 73.9975Z" fill="url(#paint0_linear)"/>
</mask>
<g mask="url(#mask0)">
<path fill-rule="evenodd" clip-rule="evenodd" d="M0 73.9975C0 114.867 33.1319 148 73.9974 148C114.868 148 148 114.867 148 73.9975C148 33.1283 114.868 0 73.9974 0C33.1319 0 0 33.1283 0 73.9975Z" fill="url(#paint1_linear)"/>
</g>
<path d="M68.1984 92.0556V100.736H42.6462C38.4744 100.736 34.6503 98.6528 32.5644 95.007C30.4785 91.3611 30.4785 87.0208 32.5644 83.375L37.7791 74.3472L32.2168 71.0486L50.9898 60.1111V81.8125L45.4274 78.5139L40.2127 87.5417C39.5174 88.9306 40.0389 89.9722 40.2127 90.4931C40.3865 91.0139 41.2556 91.8819 42.6462 91.8819H68.1984V92.0556ZM86.6237 35.2847L83.4949 29.7292C81.409 26.2569 77.5849 24 73.4131 24C69.2413 24 65.4172 26.2569 63.3313 29.7292L50.9898 51.2569L58.4642 55.5972L70.9795 34.0694C71.6748 32.8542 72.8916 32.6806 73.4131 32.6806C73.9346 32.6806 75.1513 32.8542 75.8466 34.0694L79.1493 39.625L73.5869 42.9236L92.3599 53.8611V32.1597L86.6237 35.2847ZM114.436 83.5486L99.3129 57.3333L91.8384 61.6736L106.961 87.8889C107.656 89.2778 107.135 90.3194 106.961 90.8403C106.787 91.3611 105.918 92.2292 104.528 92.2292H99.1391V85.8056L80.3661 96.5694L98.9652 107.333V100.91H104.354C108.526 100.91 112.35 98.8264 114.436 95.1806C116.521 91.3611 116.521 87.0208 114.436 83.5486ZM55.1616 110.458H61.593C64.0266 110.458 66.4601 111.674 66.4601 114.799C66.4601 118.097 64.5481 119.486 61.593 119.486H58.638V124H55.1616V110.458ZM58.638 116.708H61.0716C62.1145 116.708 62.9836 116.188 62.9836 114.972C62.9836 113.757 62.1145 113.236 61.0716 113.236H58.638V116.708ZM68.1984 110.458H78.9755V113.236H71.6748V115.667H78.2802V118.444H71.6748V121.049H79.1493V124H68.1984V110.458ZM91.6646 113.583H87.6667V124H84.1902V113.583H80.1922V110.632H91.6646V113.583ZM64.5481 66.3611V61.1528C68.7198 61.1528 72.8916 59.7639 73.0654 55.0764H78.9755V84.0694H71.501V66.3611H64.5481Z" fill="url(#paint2_linear)"/>
<defs>
<linearGradient id="paint0_linear" x1="129.064" y1="125.536" x2="17.9751" y2="25.4011" gradientUnits="userSpaceOnUse">
<stop offset="0.046875" stop-color="#F09633"/>
<stop offset="0.567708" stop-color="#FFCC00"/>
<stop offset="1" stop-color="#FFFF33"/>
</linearGradient>
<linearGradient id="paint1_linear" x1="129.064" y1="125.536" x2="17.9751" y2="25.4011" gradientUnits="userSpaceOnUse">
<stop offset="0.046875" stop-color="#F09633"/>
<stop offset="0.567708" stop-color="#FFCC00"/>
<stop offset="1" stop-color="#FFFF33"/>
</linearGradient>
<linearGradient id="paint2_linear" x1="-6.6576" y1="24.0566" x2="129.197" y2="101.189" gradientUnits="userSpaceOnUse">
<stop offset="0.00520833" stop-color="#FFF428"/>
<stop offset="0.500184" stop-color="#64BF0C"/>
<stop offset="1" stop-color="#006633"/>
</linearGradient>
</defs>
</svg>
