<svg width="148" height="148" viewBox="0 0 148 148" fill="none" xmlns="http://www.w3.org/2000/svg">
<mask id="mask0" mask-type="alpha" maskUnits="userSpaceOnUse" x="0" y="0" width="148" height="148">
<path fill-rule="evenodd" clip-rule="evenodd" d="M0 73.9975C0 114.867 33.1319 148 73.9974 148C114.868 148 148 114.867 148 73.9975C148 33.1283 114.868 0 73.9974 0C33.1319 0 0 33.1283 0 73.9975Z" fill="url(#paint0_linear)"/>
</mask>
<g mask="url(#mask0)">
<path fill-rule="evenodd" clip-rule="evenodd" d="M0 73.9975C0 114.867 33.1319 148 73.9974 148C114.868 148 148 114.867 148 73.9975C148 33.1283 114.868 0 73.9974 0C33.1319 0 0 33.1283 0 73.9975Z" fill="url(#paint1_linear)"/>
<mask id="mask1" mask-type="alpha" maskUnits="userSpaceOnUse" x="0" y="1" width="148" height="148">
<path d="M73.8078 148.616C114.571 148.616 147.616 115.571 147.616 74.8078C147.616 34.0449 114.571 1 73.8078 1C33.0449 1 0 34.0449 0 74.8078C0 115.571 33.0449 148.616 73.8078 148.616Z" fill="url(#paint2_linear)"/>
</mask>
<g mask="url(#mask1)">
<path d="M87.4545 52.8962C65.735 56.5482 50.7428 75.5767 51.1272 96.9118L59.7766 95.3741C61.122 83.0728 70.5402 72.6936 83.2259 70.5793C95.9116 68.465 108.213 75.1923 113.595 86.3404L136.083 82.4962C129.74 62.1222 109.174 49.2443 87.4545 52.8962Z" fill="url(#paint3_linear)"/>
<path d="M136.275 82.8805C136.275 82.6883 136.275 82.6883 136.083 82.4961L113.595 86.3402L59.7766 95.374L51.1272 96.9117C51.1272 97.1039 51.1272 97.1039 51.1272 97.2961C47.6675 97.8727 45.5532 101.14 46.1298 104.408C46.7064 107.868 49.974 109.982 53.2415 109.597C53.6259 110.751 54.0103 111.904 54.5869 113.057L73.9999 187.249C74.7688 189.94 77.4597 191.862 80.3428 191.286L140.696 181.099C143.579 180.714 145.501 178.023 145.309 175.332L138.197 98.4493C138.197 97.4883 138.197 96.335 138.197 95.374C141.657 94.7974 143.964 91.5299 143.387 88.2623C142.81 84.6104 139.735 82.3039 136.275 82.8805Z" fill="url(#paint4_linear)"/>
<path d="M29.4078 33.8675L30.7532 35.0207C30.561 38.6727 31.3299 45.9766 38.4415 54.8181C39.5948 56.1636 47.2831 63.0831 52.2805 67.696C54.0104 69.2337 55.3558 70.387 55.9325 70.9636C56.3169 71.1558 56.7013 71.7324 57.4701 72.309C61.1221 75.7688 69.7714 83.8415 71.1169 84.6103C71.5013 84.8025 71.6935 84.9948 72.0779 85.187C72.6545 85.3792 73.2312 85.7636 73.8078 85.9558C74.1922 86.148 74.3844 86.148 74.7688 86.3402C75.3454 86.5324 75.9221 86.5324 76.4987 86.7246C76.6909 86.7246 77.0753 86.7246 77.2675 86.7246C77.6519 86.7246 78.0364 86.7246 78.2286 86.5324C78.613 86.5324 78.8052 86.3402 79.1896 86.3402C79.9584 85.9558 80.7273 85.5714 81.4961 84.6103C82.4571 83.6493 83.4182 82.6883 84.187 81.7272C84.5714 81.1506 85.148 80.7662 85.5325 80.1896C86.4935 79.2285 87.2623 78.4597 87.8389 77.6909C88.6078 76.7298 89.1844 76.1532 89.761 75.5766C90.3377 74.9999 90.9143 74.2311 91.1065 73.4623C91.2987 73.0779 91.2987 72.8857 91.2987 72.5012C91.2987 72.1168 91.2987 71.7324 91.2987 71.348C91.2987 71.1558 91.2987 70.7714 91.2987 70.5792C91.2987 70.0025 91.1065 69.4259 90.9143 68.8493C90.7221 68.4649 90.7221 68.2727 90.5299 67.8883C90.1454 67.3116 89.9532 66.735 89.5688 66.1584C89.3766 65.774 89.1844 65.5818 88.9922 65.1973C88.0312 63.8519 78.613 55.2025 75.1532 51.935C74.7688 51.5506 74.3844 51.1662 74.1922 50.974C73.6156 50.3973 72.4623 49.2441 70.9247 47.8986C66.1195 43.2857 58.0467 35.7896 56.7013 34.8285C47.4753 28.2934 39.9792 28.2934 36.5195 28.6779L35.174 27.5246C35.3662 27.3324 35.5584 27.1402 35.5584 26.7558C35.5584 26.5636 35.3662 26.3714 35.3662 26.3714C35.174 26.1792 34.9818 26.1792 34.7896 26.3714C34.5974 26.3714 34.5974 26.5636 34.5974 26.5636L33.6364 25.6025L27.8701 31.7532L28.8312 32.7142C28.8312 32.7142 28.6389 32.9064 28.6389 33.0986C28.4467 33.2909 28.6389 33.4831 28.6389 33.6753C28.8312 33.8675 28.8312 33.8675 29.0234 33.8675C29.0234 34.2519 29.2156 34.0597 29.4078 33.8675Z" fill="url(#paint5_linear)"/>
<path d="M24.4104 30.6L25.7558 31.9455L27.1013 33.0987C27.1013 33.0987 27.2935 33.2909 27.4857 33.0987C27.6779 33.0987 27.6779 33.0987 27.8701 32.9065C28.4467 32.1377 29.7922 30.7922 31.1376 29.4468C32.4831 28.1013 33.8285 26.5636 34.4052 25.987C34.4052 25.987 34.5974 25.7948 34.5974 25.6026C34.5974 25.4104 34.5974 25.4104 34.4052 25.2182L32.8675 24.0649L31.522 22.7195C31.1376 22.3351 29.0233 24.0649 27.2935 25.987C25.5636 27.9091 24.0259 30.2156 24.4104 30.6Z" fill="url(#paint6_linear)"/>
<path d="M24.4104 30.6L25.7558 31.9455L27.1013 33.0987C27.1013 33.0987 27.2935 33.2909 27.4857 33.0987C27.6779 33.0987 27.6779 33.0987 27.8701 32.9065C28.4467 32.1377 29.7922 30.7922 31.1376 29.4468C32.4831 28.1013 33.8285 26.5636 34.4052 25.987C34.4052 25.987 34.5974 25.7948 34.5974 25.6026C34.5974 25.4104 34.5974 25.4104 34.4052 25.2182L32.8675 24.0649L31.522 22.7195C31.1376 22.3351 29.0233 24.0649 27.2935 25.987C25.3714 28.1013 24.0259 30.2156 24.4104 30.6Z" stroke="black" stroke-width="0.0640424" stroke-miterlimit="10"/>
</g>
</g>
<defs>
<linearGradient id="paint0_linear" x1="129.064" y1="125.536" x2="17.9751" y2="25.4011" gradientUnits="userSpaceOnUse">
<stop offset="0.046875" stop-color="#F09633"/>
<stop offset="0.567708" stop-color="#FFCC00"/>
<stop offset="1" stop-color="#FFFF33"/>
</linearGradient>
<linearGradient id="paint1_linear" x1="129.064" y1="125.536" x2="17.9751" y2="25.4011" gradientUnits="userSpaceOnUse">
<stop offset="0.046875" stop-color="#F09633"/>
<stop offset="0.567708" stop-color="#FFCC00"/>
<stop offset="1" stop-color="#FFFF33"/>
</linearGradient>
<linearGradient id="paint2_linear" x1="0" y1="74.7142" x2="147.428" y2="74.7142" gradientUnits="userSpaceOnUse">
<stop stop-color="#F8BF19"/>
<stop offset="0.9968" stop-color="#EF8D22"/>
</linearGradient>
<linearGradient id="paint3_linear" x1="100.134" y1="70.5999" x2="139.623" y2="60.4092" gradientUnits="userSpaceOnUse">
<stop offset="0.1416" stop-color="#66BC46"/>
<stop offset="0.3844" stop-color="#51A644"/>
<stop offset="0.8327" stop-color="#108040"/>
</linearGradient>
<linearGradient id="paint4_linear" x1="72.4779" y1="142.914" x2="169.738" y2="126.461" gradientUnits="userSpaceOnUse">
<stop offset="0.1416" stop-color="#66BC46"/>
<stop offset="0.4431" stop-color="#51A644"/>
<stop offset="1" stop-color="#108040"/>
</linearGradient>
<linearGradient id="paint5_linear" x1="51.315" y1="61.5967" x2="63.6456" y2="48.2938" gradientUnits="userSpaceOnUse">
<stop stop-color="white"/>
<stop offset="0.282" stop-color="#F8F8F8"/>
<stop offset="0.574" stop-color="#EBEAEA"/>
<stop offset="0.8697" stop-color="#D7D7D8"/>
<stop offset="1" stop-color="#CDCDCE"/>
</linearGradient>
<linearGradient id="paint6_linear" x1="25.4793" y1="31.6374" x2="32.6609" y2="23.8895" gradientUnits="userSpaceOnUse">
<stop offset="0.1416" stop-color="#66BC46"/>
<stop offset="0.3844" stop-color="#51A644"/>
<stop offset="0.8327" stop-color="#108040"/>
</linearGradient>
</defs>
</svg>
