<svg width="85" height="100" viewBox="0 0 85 100" fill="none" xmlns="http://www.w3.org/2000/svg">
<path d="M37.1984 68.0556V76.7361H11.6462C7.47444 76.7361 3.65031 74.6528 1.56442 71.007C-0.521472 67.3611 -0.521472 63.0208 1.56442 59.375L6.77914 50.3472L1.21677 47.0486L19.9898 36.1111V57.8125L14.4274 54.5139L9.21268 63.5417C8.51738 64.9306 9.03885 65.9722 9.21268 66.4931C9.3865 67.0139 10.2556 67.8819 11.6462 67.8819H37.1984V68.0556ZM55.6237 11.2847L52.4949 5.72917C50.409 2.25694 46.5849 0 42.4131 0C38.2413 0 34.4172 2.25694 32.3313 5.72917L19.9898 27.2569L27.4642 31.5972L39.9795 10.0694C40.6748 8.85417 41.8916 8.68056 42.4131 8.68056C42.9346 8.68056 44.1513 8.85417 44.8466 10.0694L48.1493 15.625L42.5869 18.9236L61.3599 29.8611V8.15972L55.6237 11.2847ZM83.4356 59.5486L68.3129 33.3333L60.8384 37.6736L75.9611 63.8889C76.6564 65.2778 76.135 66.3194 75.9611 66.8403C75.7873 67.3611 74.9182 68.2292 73.5276 68.2292H68.1391V61.8056L49.3661 72.5694L67.9652 83.3333V76.9097H73.3538C77.5256 76.9097 81.3497 74.8264 83.4356 71.1806C85.5215 67.3611 85.5215 63.0208 83.4356 59.5486ZM24.1616 86.4583H30.593C33.0266 86.4583 35.4601 87.6736 35.4601 90.7986C35.4601 94.0972 33.5481 95.4861 30.593 95.4861H27.638V100H24.1616V86.4583ZM27.638 92.7083H30.0716C31.1145 92.7083 31.9836 92.1875 31.9836 90.9722C31.9836 89.757 31.1145 89.2361 30.0716 89.2361H27.638V92.7083ZM37.1984 86.4583H47.9755V89.2361H40.6748V91.6667H47.2802V94.4445H40.6748V97.0486H48.1493V100H37.1984V86.4583ZM60.6646 89.5833H56.6667V100H53.1902V89.5833H49.1922V86.632H60.6646V89.5833ZM33.5481 42.3611V37.1528C37.7198 37.1528 41.8916 35.7639 42.0654 31.0764H47.9755V60.0694H40.501V42.3611H33.5481Z" fill="url(#paint0_linear)"/>
<defs>
<linearGradient id="paint0_linear" x1="-37.6576" y1="0.0566404" x2="98.197" y2="77.1889" gradientUnits="userSpaceOnUse">
<stop offset="0.00520833" stop-color="#FFF428"/>
<stop offset="0.500184" stop-color="#64BF0C"/>
<stop offset="1" stop-color="#006633"/>
</linearGradient>
</defs>
</svg>
